<svg width="95" height="58" viewBox="0 0 95 58" fill="none" xmlns="http://www.w3.org/2000/svg">
<path d="M3.79306 0.0948878C3.56932 -0.0669647 3.25674 -0.0167972 3.09489 0.20694L0.457349 3.85295C0.295496 4.07669 0.345664 4.38927 0.569401 4.55112C0.793138 4.71297 1.10572 4.66281 1.26757 4.43907L3.61205 1.19817L6.85295 3.54265C7.07669 3.7045 7.38927 3.65434 7.55112 3.4306C7.71297 3.20686 7.66281 2.89428 7.43907 2.73243L3.79306 0.0948878ZM3.00632 0.579233C3.16505 1.56828 3.33953 2.54095 3.52966 3.4975L4.51047 3.30256C4.32281 2.35839 4.1505 1.39789 3.99368 0.420767L3.00632 0.579233ZM4.91382 9.24437C5.46793 11.1832 6.09515 13.0483 6.79441 14.8422L7.72613 14.479C7.03857 12.7151 6.4212 10.8796 5.87532 8.96958L4.91382 9.24437ZM9.22438 20.2417C10.1421 22.0233 11.1426 23.7247 12.2243 25.3491L13.0566 24.7949C11.9958 23.2018 11.0143 21.5327 10.1134 19.7837L9.22438 20.2417ZM15.7845 30.0816C17.061 31.589 18.4208 33.0188 19.862 34.3748L20.5473 33.6465C19.133 32.3158 17.7993 30.9134 16.5477 29.4353L15.7845 30.0816ZM24.3851 38.1928C25.9393 39.3709 27.5683 40.4829 29.2705 41.5323L29.7953 40.6811C28.1191 39.6477 26.5167 38.5538 24.9892 37.3959L24.3851 38.1928ZM34.4295 44.4132C36.1541 45.2851 37.9415 46.1053 39.7902 46.8767L40.1753 45.9538C38.3476 45.1912 36.5824 44.3811 34.8807 43.5208L34.4295 44.4132ZM45.3077 48.9749C47.1299 49.6055 49.0038 50.1967 50.9285 50.7508L51.2052 49.7899C49.2964 49.2403 47.4392 48.6543 45.6347 48.0299L45.3077 48.9749ZM56.6243 52.2498C58.4992 52.6997 60.4171 53.1198 62.3771 53.5119L62.5732 52.5314C60.6249 52.1416 58.7195 51.7242 56.8576 51.2774L56.6243 52.2498ZM68.1688 54.5705C70.0701 54.8871 72.0074 55.1809 73.98 55.4535L74.1169 54.4629C72.1528 54.1915 70.2247 53.8991 68.3331 53.5841L68.1688 54.5705ZM79.8222 56.1882C81.7411 56.407 83.6909 56.6083 85.6708 56.7934L85.7639 55.7977C83.7902 55.6133 81.8473 55.4127 79.9355 55.1947L79.8222 56.1882ZM91.5224 57.2873C92.4969 57.3612 93.4781 57.4317 94.4661 57.4988L94.5339 56.5012C93.5484 56.4342 92.5698 56.3639 91.5981 56.2902L91.5224 57.2873Z" fill="#505050" fill-opacity="0.57"/>
</svg>
