<svg width="134" height="85" viewBox="0 0 134 85" fill="none" xmlns="http://www.w3.org/2000/svg">
    <g clip-path="url(#clip0_5_123)">
        <path d="M19.1055 2.67049V5.21072H21.6245H24.1436V2.67049V0.130264H21.6245H19.1055V2.67049Z" fill="#505050"/>
        <path d="M21.69 6.05746C16.7173 6.29194 12.412 7.69233 9.12747 10.1283C4.25296 13.7368 2.19847 19.2732 3.30423 25.7605C4.01087 29.8965 6.20277 33.0816 9.94535 35.4004C10.8548 35.967 12.641 36.8464 13.8384 37.3153C14.8984 37.7387 18.1044 38.8199 18.2876 38.8199C18.3727 38.8199 18.3858 38.4682 18.3858 35.967V33.1142L17.6857 32.8341C16.0957 32.1893 14.5385 31.3621 13.3411 30.5088C13.0402 30.3004 12.4251 29.7598 11.9737 29.3103C10.7501 28.1054 10.0566 26.9981 9.56585 25.4674C9.17982 24.2624 9.12747 23.8456 9.12747 21.9828C9.13402 20.4782 9.1471 20.2111 9.27796 19.6054C9.74251 17.4429 10.5342 15.9578 11.9279 14.6096C13.9693 12.636 16.9463 11.5287 21.088 11.1965C22.377 11.0988 25.3082 11.1509 26.2373 11.3008C32.1391 12.2191 35.391 15.4824 36.9874 22.0805C37.1118 22.6015 37.2492 23.1877 37.295 23.3896L37.3669 23.7609L37.609 23.7283C37.7399 23.7088 38.9569 23.559 40.3047 23.3896L42.7583 23.09L42.778 22.9142C42.8041 22.6992 42.5162 20.9211 42.2938 19.931C41.0375 14.349 38.2241 10.441 33.8795 8.23294C30.6538 6.59808 26.3682 5.83601 21.69 6.05746Z" fill="#505050"/>
        <path d="M49.877 18.4785C49.8966 26.4249 49.9097 27.454 50.0079 28.0011C50.4201 30.3134 51.2772 31.9027 52.6839 32.9579C53.685 33.7134 55.059 34.2475 56.6163 34.4885C57.5323 34.6383 59.7765 34.6904 60.758 34.5862C65.3053 34.1238 67.7917 32.0004 68.6161 27.8774C68.7142 27.3759 68.7273 26.464 68.7469 18.446L68.7731 9.57471H66.7775H64.7819L64.7623 18.1529C64.7426 26.1057 64.7295 26.7831 64.6183 27.3563C64.1799 29.6621 63.1985 30.7433 61.1505 31.1732C60.0513 31.4077 58.2324 31.3556 57.1724 31.0624C55.2095 30.5218 54.1496 28.9912 53.9206 26.3988C53.8748 25.9234 53.8486 22.595 53.8486 17.5992V9.57471H51.853H49.8508L49.877 18.4785Z" fill="#505050"/>
        <path d="M74.459 21.9111V34.2605H76.4546H78.4502V29.9291V25.5977H80.5636C81.7217 25.5977 82.9976 25.5651 83.3901 25.5326C87.4664 25.1613 89.9527 23.4678 90.9342 20.387C91.209 19.5207 91.3398 18.6935 91.3856 17.5211C91.5296 13.5153 89.7957 10.8969 86.3672 9.97203C85.0586 9.6203 85.1306 9.6203 79.6148 9.59425L74.459 9.56819V21.9111ZM82.9321 12.8965C85.9877 13.1831 87.2309 14.4858 87.2243 17.3908C87.2178 20.1525 86.1251 21.618 83.6846 22.1195C83.2331 22.2107 82.6835 22.2368 80.7926 22.2628L78.4502 22.2889V17.5601V12.8314H80.3346C81.3684 12.8314 82.5395 12.864 82.9321 12.8965Z" fill="#505050"/>
        <path d="M95.7236 21.9176V34.2605H103.477H111.23V32.5996V30.9387H105.473H99.7148V27.226V23.5134H104.884H110.053V21.8525V20.1916H104.884H99.7148V16.5441V12.8965H105.211H110.707V11.2356V9.5747H103.215H95.7236V21.9176Z" fill="#505050"/>
        <path d="M115.483 21.9111V34.2605H117.479H119.475V29.2778V24.295H121.824C123.623 24.295 124.186 24.3146 124.231 24.3732C124.271 24.4188 125.481 26.6659 126.934 29.3559L129.57 34.2605H131.756H133.941L133.712 33.8502C132.966 32.5084 128.046 23.3701 128.046 23.3245C128.046 23.2985 128.236 23.1942 128.465 23.0965C129.4 22.6992 130.552 21.8134 131.16 21.0253C131.553 20.5237 131.985 19.6965 132.194 19.0517C132.724 17.4038 132.691 15.1306 132.103 13.6326C131.396 11.8153 129.839 10.5061 127.725 9.96551C126.397 9.6203 126.469 9.62681 120.803 9.59425L115.483 9.56819V21.9111ZM125.213 12.9877C127.555 13.4372 128.543 14.6682 128.419 17C128.373 17.8663 128.262 18.3483 127.954 18.9866C127.45 20.0352 126.626 20.6084 125.069 20.9797C124.859 21.0253 123.819 21.0644 122.111 21.0839L119.475 21.1165V16.9674V12.8184L122.079 12.851C124.048 12.877 124.807 12.9096 125.213 12.9877Z" fill="#505050"/>
        <path d="M19.1055 37.7778V63.7663H21.6245H24.1436V37.7778V11.7893H21.6245H19.1055V37.7778Z" fill="url(#fade)"/>
        <path d="M24.9418 37.9732L24.9614 40.7088L26.3027 41.1582C30.1892 42.4544 32.4727 43.692 34.2197 45.4571C36.1695 47.4176 37.0921 49.8146 37.0986 52.9084C37.0986 54.8755 36.8042 56.4192 36.1237 57.9628C34.5011 61.6299 30.6211 63.9226 25.0138 64.5153C22.0825 64.828 18.9615 64.6521 16.5144 64.0268C11.7904 62.8284 8.7283 59.969 6.90282 55.0383C6.62147 54.2893 6.06532 52.4264 5.9868 51.9575C5.95409 51.7946 5.90174 51.7165 5.82977 51.7165C5.712 51.7165 0.242073 52.5111 0.209359 52.5372C0.163558 52.5632 0.54305 54.3805 0.78514 55.3314C2.6368 62.5548 6.9617 66.9448 13.9365 68.6839C15.5919 69.0943 16.9659 69.3092 18.9615 69.472C20.4206 69.5893 24.3791 69.5697 25.5503 69.4395C29.1162 69.0356 31.8054 68.3061 34.2786 67.0816C36.0583 66.2023 37.236 65.3816 38.525 64.1245C41.1225 61.6103 42.5031 58.7119 43.0266 54.6671C43.177 53.5077 43.177 50.9935 43.0266 49.8927C42.6732 47.2808 41.8815 45.2421 40.4944 43.3793C39.9448 42.6368 38.4596 41.1778 37.6548 40.5851C35.6003 39.0805 33.042 37.8429 29.6069 36.6705C28.5535 36.3123 25.0726 35.2375 24.968 35.2375C24.9483 35.2375 24.9352 36.4686 24.9418 37.9732Z" fill="url(#fadeReverse)"/>
        <path d="M91.1107 41.1387C91.0061 41.1517 90.6527 41.1973 90.3256 41.2364C90.005 41.2755 89.3899 41.3992 88.9581 41.5034C84.4042 42.6368 81.5253 46.1475 80.7598 51.4885C80.6027 52.6283 80.5962 56.0023 80.7532 57.09C81.3355 61.0567 82.8601 63.6555 85.523 65.2057C88.1206 66.7168 92.4128 67.0686 95.6516 66.0329C98.4062 65.1536 100.408 63.2387 101.252 60.6724C101.449 60.0732 101.658 59.0962 101.599 59.0441C101.553 58.9919 98.1379 58.3406 98.1052 58.3797C98.0921 58.3927 98.007 58.6337 97.922 58.9203C97.0518 61.8774 95.1805 63.2322 91.9613 63.2452C87.6037 63.2582 85.2875 60.8939 84.7968 55.9567C84.7117 55.0839 84.7117 52.8628 84.8033 52.0552C85.2221 48.1927 86.8513 45.8088 89.6778 44.923C91.3136 44.4084 93.5709 44.4475 95.0038 45.0077C96.5938 45.6329 97.5883 47.105 97.9874 49.4368C98.0463 49.7755 98.0986 50.0555 98.0986 50.0621C98.1052 50.0686 98.9361 49.9904 99.9438 49.8992L101.769 49.7299L101.75 49.3716C101.697 48.2969 101.233 46.5318 100.762 45.5873C99.597 43.2751 97.4771 41.79 94.6374 41.2885C93.8915 41.1582 91.6538 41.0605 91.1107 41.1387Z" fill="#14A020"/>
        <path d="M50.0537 53.8919V66.2414H52.0493H54.0449V61.2586V56.2758H56.3938C58.1932 56.2758 58.7559 56.2954 58.8017 56.354C58.8409 56.3996 60.0514 58.6467 61.5039 61.3368L64.1407 66.2414H66.3261H68.5114L68.2824 65.831C67.5365 64.4893 62.6162 55.3509 62.6162 55.3053C62.6162 55.2793 62.806 55.1751 63.035 55.0774C63.9706 54.6801 65.1222 53.7942 65.7307 53.0061C66.1232 52.5046 66.5551 51.6774 66.7645 51.0326C67.2944 49.3847 67.2617 47.1115 66.6729 45.6134C65.9662 43.7962 64.409 42.487 62.2956 41.9463C60.9674 41.6011 61.0394 41.6076 55.3731 41.5751L50.0537 41.549V53.8919ZM59.7831 44.9686C62.1255 45.418 63.1135 46.649 62.9892 48.9808C62.9434 49.8471 62.8321 50.3291 62.5246 50.9674C62.0208 52.0161 61.1964 52.5893 59.6392 52.9605C59.4298 53.0061 58.3895 53.0452 56.6817 53.0647L54.0449 53.0973V48.9483V44.7992L56.649 44.8318C58.6185 44.8578 59.3774 44.8904 59.7831 44.9686Z" fill="#14A020"/>
        <path d="M72.0381 53.8985V66.2414H74.0337H76.0293V53.8985V41.5555H74.0337H72.0381V53.8985Z" fill="#14A020"/>
        <path d="M105.8 53.8985V66.2414H113.553H121.307V64.5804V62.9195H115.549H109.791V59.2069V55.4942H114.96H120.129V53.8333V52.1724H114.96H109.791V48.5249V44.8774H115.287H120.783V43.2165V41.5555H113.292H105.8V53.8985Z" fill="#14A020"/>
        <path d="M19.1055 77.5747V84.8046H21.6245H24.1436V77.5747V70.3448H21.6245H19.1055V77.5747Z" fill="#14A020"/>
    </g>
    <defs>
        <clipPath id="clip0_5_123">
            <rect width="134" height="85" fill="white"/>
        </clipPath>
        <linearGradient id="fade" x1="0%" y1="100%" x2="0%" y2="10%">
            <stop offset="0%" style="stop-color:#14A020;stop-opacity:1" />
            <stop offset="100%" style="stop-color:#505050;stop-opacity:1" />
        </linearGradient>
        <linearGradient id="fadeReverse" x1="100%" y1="100%" x2="0%" y2="90%">
            <stop offset="0%" style="stop-color:#14A020;stop-opacity:1" />
            <stop offset="100%" style="stop-color:#505050;stop-opacity:1" />
        </linearGradient>
    </defs>
</svg>
